<?xml version="1.0" standalone="no"?>
<!DOCTYPE svg PUBLIC "-//W3C//DTD SVG 20010904//EN"
 "http://www.w3.org/TR/2001/REC-SVG-20010904/DTD/svg10.dtd">
<svg version="1.0" xmlns="http://www.w3.org/2000/svg"
 width="841.000000pt" height="122.000000pt" viewBox="0 0 841.000000 122.000000"
 preserveAspectRatio="xMidYMid meet">

<g transform="translate(0.000000,122.000000) scale(0.100000,-0.100000)"
fill="#000000" stroke="none">
<path d="M4229 1155 c-14 -7 -30 -25 -37 -39 l-12 -26 -561 0 -561 0 -20 25
c-37 47 -108 22 -108 -37 0 -59 74 -78 112 -28 l22 30 552 0 552 0 19 -37 c10
-21 32 -46 50 -56 28 -16 37 -17 68 -6 19 7 35 17 35 21 0 4 7 8 15 8 11 0 15
11 15 39 0 56 -15 88 -49 106 -36 18 -58 19 -92 0z m76 -17 c22 -10 55 -53 55
-73 0 -16 -32 -1 -42 20 -12 28 -45 33 -78 13 -10 -7 -22 -10 -25 -7 -10 10 6
36 28 47 29 14 32 14 62 0z m-65 -88 c12 -23 41 -26 70 -8 10 7 23 9 27 4 9
-9 -42 -56 -62 -56 -16 0 -75 54 -75 69 0 19 29 12 40 -9z"/>
<path d="M6523 1158 c-32 -16 -56 -72 -47 -111 4 -18 8 -36 8 -41 1 -4 20 -15
44 -23 40 -13 46 -13 75 4 18 11 41 36 52 56 l20 37 797 0 796 0 22 -35 c20
-32 60 -49 60 -25 0 6 -6 10 -14 10 -17 0 -41 28 -32 37 3 4 12 1 18 -5 30
-30 94 1 68 33 -15 18 -51 20 -68 3 -6 -6 -15 -8 -19 -5 -4 4 1 15 10 24 20
20 75 21 88 2 8 -11 9 -10 7 6 -6 40 -95 32 -118 -10 l-13 -25 -809 0 -808 0
-10 25 c-10 26 -57 55 -87 54 -10 0 -28 -5 -40 -11z m82 -24 c28 -18 33 -44
10 -44 -8 0 -15 5 -15 10 0 15 -56 12 -70 -4 -6 -8 -10 -25 -8 -38 4 -32 62
-39 78 -9 12 23 40 29 40 9 -1 -19 -21 -43 -49 -57 -30 -16 -60 -2 -85 40 -21
35 -14 61 21 89 31 24 46 25 78 4z"/>
<path d="M8400 1042 c0 -7 -7 -12 -15 -12 -8 0 -15 -4 -15 -10 0 -5 7 -10 15
-10 17 0 32 27 21 37 -3 4 -6 1 -6 -5z"/>
<path d="M4380 1007 c0 -5 86 -94 190 -199 105 -105 190 -187 190 -182 0 5
-85 95 -190 199 -104 104 -190 186 -190 182z"/>
<path d="M6285 803 c-175 -179 -181 -184 -206 -173 -32 14 -60 2 -85 -35 -14
-22 -14 -26 3 -49 41 -55 113 -36 113 30 0 33 14 50 185 220 102 101 185 186
185 189 0 16 -31 -13 -195 -182z"/>
<path d="M7858 956 c-41 -18 -76 -55 -88 -92 l-12 -34 -545 0 -545 0 -28 30
c-35 37 -72 39 -105 5 -40 -39 -32 -96 15 -120 37 -19 80 -5 104 35 l17 30
532 0 c293 0 537 -4 543 -8 6 -4 14 -20 18 -36 11 -45 43 -84 86 -106 50 -25
90 -25 141 0 l40 21 64 -62 c36 -34 65 -66 65 -71 0 -4 -344 -8 -765 -8 l-764
0 -17 35 c-55 117 -216 120 -274 5 -24 -47 -25 -77 -4 -129 l16 -40 -149 -149
c-224 -225 -259 -262 -244 -262 7 0 103 90 214 199 l200 199 31 -19 c80 -49
185 -3 219 96 l14 40 778 3 777 2 80 -77 c71 -69 79 -81 74 -106 -9 -42 25
-97 60 -97 2 0 4 33 4 74 0 71 -1 73 -23 69 -17 -3 -36 9 -80 56 -31 33 -57
64 -57 70 0 7 30 11 80 11 50 0 80 4 80 11 0 7 -34 9 -101 8 l-100 -3 -81 81
-80 80 17 33 c69 133 -72 286 -207 226z m136 -47 c51 -40 68 -101 44 -154 -21
-46 -46 -22 -45 43 1 35 -3 48 -22 63 -33 27 -77 24 -107 -6 -28 -29 -64 -33
-64 -9 0 9 16 32 36 50 30 29 43 34 83 34 34 0 56 -6 75 -21z m-158 -107 c6
-4 14 -17 18 -30 10 -31 42 -45 86 -38 47 7 70 -13 45 -38 -23 -22 -93 -20
-132 4 -35 21 -68 74 -59 96 6 15 24 18 42 6z m-1275 -208 c16 -15 29 -33 29
-40 0 -23 -29 -22 -57 2 -59 51 -128 19 -128 -60 0 -34 -3 -41 -20 -41 -17 0
-20 8 -23 51 -3 54 20 97 62 115 39 16 105 4 137 -27z m35 -88 c8 -21 -21 -70
-53 -91 -34 -23 -109 -23 -132 -1 -14 15 -14 18 -1 26 8 5 29 7 46 4 40 -7 69
8 89 46 16 32 42 40 51 16z"/>
<path d="M2742 660 c-39 -9 -86 -50 -102 -91 l-12 -29 -907 0 -906 1 -20 32
c-44 70 -128 73 -173 7 -37 -56 -12 -121 58 -150 41 -17 95 8 117 54 l17 36
905 -2 905 -3 9 -35 c13 -52 42 -86 93 -110 42 -21 49 -22 87 -9 22 7 53 24
68 36 29 25 45 29 51 13 7 -20 402 -410 416 -410 20 0 -30 54 -241 261 l-180
176 2 66 c2 63 0 68 -35 107 -33 36 -47 44 -104 55 -8 1 -30 -1 -48 -5z m125
-62 c17 -18 27 -41 31 -74 l5 -49 -24 16 c-13 9 -26 25 -28 35 -6 35 -32 54
-72 54 -28 0 -42 -6 -51 -20 -7 -11 -23 -20 -35 -20 -39 0 -25 37 27 74 36 25
114 17 147 -16z m-160 -95 c20 -58 84 -81 118 -43 22 24 41 26 49 3 4 -10 -2
-25 -15 -40 -18 -18 -33 -23 -74 -23 -30 0 -60 6 -73 16 -27 19 -55 71 -48 90
8 20 35 17 43 -3z"/>
<path d="M4778 619 c-43 -24 -6 -109 47 -109 21 0 75 43 75 60 0 3 -11 18 -25
33 -27 28 -65 35 -97 16z"/>
<path d="M5435 457 c-39 -18 -84 -71 -92 -108 l-5 -29 -774 0 c-489 0 -774 4
-774 10 0 19 -44 50 -71 50 -37 0 -83 -54 -75 -89 4 -23 -13 -44 -127 -158
-95 -96 -126 -133 -112 -133 13 0 66 46 139 119 116 116 119 118 147 107 35
-13 78 6 94 42 l10 22 771 0 772 0 6 -32 c8 -42 74 -104 121 -112 131 -25 233
103 181 228 -30 73 -139 115 -211 83z m150 -57 c36 -34 50 -84 36 -129 -17
-57 -51 -84 -115 -89 -50 -4 -56 -2 -89 29 -20 19 -38 44 -42 57 -10 34 30 29
65 -8 43 -46 99 -39 129 18 10 19 10 30 0 53 -23 58 -94 68 -131 19 -27 -38
-73 -43 -63 -7 4 12 22 37 42 56 33 31 39 33 89 29 39 -3 61 -11 79 -28z"/>
<path d="M1379 437 c-31 -17 -50 -37 -68 -70 l-24 -47 -543 0 -542 0 -30 30
c-34 33 -61 38 -96 14 -75 -48 -9 -171 71 -132 15 7 32 23 38 36 l10 22 547 0
546 0 7 -32 c23 -105 133 -153 243 -107 l32 13 83 -82 c45 -45 90 -82 100 -82
10 0 -20 35 -77 91 l-94 91 19 41 c21 48 24 83 8 124 -22 60 -97 113 -159 113
-15 0 -47 -10 -71 -23z m162 -56 c34 -33 39 -45 39 -83 0 -56 -21 -88 -44 -69
-12 10 -14 23 -10 51 5 33 2 43 -19 64 -33 33 -67 33 -105 1 -28 -23 -72 -34
-72 -17 0 16 40 66 62 78 13 8 43 13 67 14 37 0 49 -5 82 -39z m-161 -104 c0
-8 11 -24 25 -37 20 -19 31 -22 63 -16 29 4 43 2 52 -10 37 -44 -83 -65 -140
-24 -24 17 -60 75 -60 96 0 2 14 4 30 4 18 0 30 -5 30 -13z"/>
<path d="M4000 165 c-49 -15 -79 -47 -98 -104 -17 -48 -15 -61 8 -61 16 0 20
7 20 30 0 20 11 42 34 67 29 32 39 37 83 37 27 1 61 -5 76 -13 31 -16 63 -72
54 -95 -8 -21 -36 -21 -44 2 -12 33 -46 62 -75 62 -34 0 -78 -39 -78 -70 0
-20 1 -20 745 -20 802 0 769 -2 727 50 -28 35 -87 30 -121 -10 l-26 -32 -539
4 -539 4 -13 36 c-35 102 -115 144 -214 113z"/>
<path d="M7613 104 c-44 -22 -82 -104 -48 -104 8 0 15 9 15 20 0 34 44 70 85
70 38 0 85 -35 85 -65 0 -22 -25 -18 -42 6 -17 27 -66 29 -85 3 -7 -10 -13
-21 -13 -26 0 -4 181 -7 403 -6 l402 3 -315 5 -314 5 -19 36 c-34 64 -91 84
-154 53z"/>
</g>
</svg>
